<svg width="103" height="37" viewBox="0 0 103 37" fill="none" xmlns="http://www.w3.org/2000/svg">
<g id="Company Logo">
<path id="Exclude" fill-rule="evenodd" clip-rule="evenodd" d="M35.6951 6.22703C40.3269 6.22703 44.176 10.1793 44.8697 15.3287C49.3096 16.1333 52.8205 20.5974 52.8205 25.9694C52.8205 31.9075 48.5525 36.7379 43.4325 36.7379H9.38802C4.26804 36.7379 0 31.9075 0 25.9694C0 20.6429 3.455 16.2068 7.84209 15.3498C7.84055 15.3007 7.84055 15.2499 7.84055 15.2008C7.84055 7.28391 13.3942 0.842758 20.2204 0.842758C24.6391 0.842758 28.6166 3.52257 30.826 7.82904C32.2783 6.78616 33.9527 6.22703 35.6951 6.22703ZM31.399 34C30.2036 34 29.2551 33.8019 28.5535 33.4058C27.8649 32.9976 27.3776 32.4334 27.0918 31.7131C26.8059 30.9808 26.663 30.1225 26.663 29.1381V23.88C26.663 22.8716 26.8059 22.0072 27.0918 21.2869C27.3776 20.5546 27.8649 19.9904 28.5535 19.5943C29.2551 19.1981 30.2036 19 31.399 19C32.5684 19 33.4779 19.1801 34.1275 19.5402C34.7902 19.8884 35.2579 20.3806 35.5308 21.0168C35.8036 21.6531 35.9401 22.3854 35.9401 23.2137V24.4742H32.5294V23.0156C32.5294 22.7275 32.5099 22.4514 32.4709 22.1873C32.4449 21.9232 32.354 21.7071 32.1981 21.539C32.0421 21.359 31.7758 21.2689 31.399 21.2689C31.0352 21.2689 30.7623 21.359 30.5804 21.539C30.4115 21.7191 30.3011 21.9472 30.2491 22.2233C30.2101 22.4874 30.1906 22.7695 30.1906 23.0696V29.9304C30.1906 30.2545 30.2166 30.5546 30.2686 30.8307C30.3336 31.0949 30.4505 31.3109 30.6194 31.479C30.8013 31.6351 31.0612 31.7131 31.399 31.7131C31.7628 31.7131 32.0227 31.6291 32.1786 31.461C32.3345 31.2809 32.4319 31.0528 32.4709 30.7767C32.5099 30.5006 32.5294 30.2185 32.5294 29.9304V28.3998H35.9401V29.6603C35.9401 30.4886 35.8036 31.2329 35.5308 31.8932C35.2709 32.5414 34.8097 33.0576 34.147 33.4418C33.4974 33.8139 32.5814 34 31.399 34ZM6 19.1981L8.84549 33.7839H12.529L15.4135 19.1981H12.2562L10.6775 29.1021L8.98192 19.1981H6ZM18.6121 19.1981L15.6302 33.7839H18.9239L19.4696 30.7047H21.7889L22.3151 33.7839H25.5309L22.588 19.1981H18.6121ZM20.6195 23.0877L21.4576 28.7779H19.7815L20.6195 23.0877ZM40.0812 19.1981L37.0993 33.7839H40.393L40.9387 30.7047H43.258L43.7842 33.7839H47L44.0571 19.1981H40.0812ZM42.0886 23.0877L42.9267 28.7779H41.2506L42.0886 23.0877Z" fill="white"/>
<g id="SKY">
<path d="M62.7293 37C61.1489 37 59.8284 36.7119 58.7679 36.1357C57.7074 35.5594 56.9068 34.6737 56.3661 33.4786C55.8255 32.2621 55.5239 30.6935 55.4615 28.7727L60.2339 28.0364C60.2547 29.1462 60.3483 30.0425 60.5147 30.7255C60.7018 31.4084 60.9514 31.8993 61.2633 32.1981C61.596 32.4969 61.9911 32.6463 62.4486 32.6463C63.0308 32.6463 63.4051 32.4435 63.5715 32.038C63.7586 31.6325 63.8522 31.2057 63.8522 30.7575C63.8522 29.6904 63.6027 28.794 63.1036 28.0684C62.6045 27.3215 61.9287 26.5745 61.0761 25.8275L58.8927 23.8747C57.9361 23.0424 57.1251 22.1034 56.4597 21.0576C55.8151 19.9905 55.4927 18.678 55.4927 17.12C55.4927 14.9218 56.127 13.2465 57.3955 12.094C58.6639 10.9202 60.3899 10.3333 62.5733 10.3333C63.925 10.3333 65.0063 10.5681 65.8173 11.0376C66.6491 11.5071 67.273 12.126 67.6888 12.8944C68.1255 13.6413 68.4167 14.4416 68.5622 15.2953C68.7286 16.1276 68.8222 16.928 68.843 17.6963L64.0394 18.3045C64.0186 17.5362 63.9666 16.8746 63.8834 16.3197C63.821 15.7435 63.6755 15.306 63.4467 15.0072C63.218 14.6871 62.8645 14.527 62.3862 14.527C61.8663 14.527 61.4816 14.7511 61.2321 15.1993C61.0033 15.6475 60.889 16.0956 60.889 16.5438C60.889 17.5042 61.1073 18.2938 61.544 18.9128C62.0015 19.5103 62.5941 20.1399 63.322 20.8015L65.4118 22.6903C66.5139 23.6507 67.4393 24.7391 68.1879 25.9556C68.9573 27.1721 69.342 28.6767 69.342 30.4694C69.342 31.6859 69.0717 32.7956 68.531 33.7987C67.9904 34.7804 67.221 35.5594 66.2228 36.1357C65.2455 36.7119 64.081 37 62.7293 37Z" fill="white"/>
<path d="M72.0455 36.6158V10.6855H77.6289V21.2817L81.871 10.6855H87.3296L82.6508 22.4022L87.548 36.6158H81.871L78.2215 25.1553L77.6289 26.1797V36.6158H72.0455Z" fill="white"/>
<path d="M92.925 36.6158V26.0196L88.1214 10.6855H93.3928L95.7946 18.8807L97.9469 10.6855H103L98.29 26.0196V36.6158H92.925Z" fill="white"/>
</g>
</g>
</svg>
